<svg xmlns="http://www.w3.org/2000/svg" version="1.2" baseProfile="tiny" width="152" height="192" viewBox="24 14 152 192"><path d="M 100,28 L172,100 100,172 28,100 100,28 Z" stroke-width="4" stroke="black" fill="rgb(200,0,0)" fill-opacity="1" ></path><path d="M100,80 l0,40 M81,90.5 l38,19 M81,109.5 l38,-19" stroke-width="4" stroke="black" fill="none" ></path><circle cx="100" cy="100" r="20" stroke-width="4" stroke="black" fill="none" ></circle><path d="M80,70 l40,0 M80,80 l25,-25 M100,80 l0,40 M81,90.5 l38,19 M81,109.5 l38,-19" stroke-width="4" stroke="black" fill="none" ></path><circle cx="100" cy="100" r="20" stroke-width="4" stroke="black" fill="none" ></circle><path d="M85,40 85,18 115,18 115,40 100,24 Z" stroke-width="4" stroke="black" fill="black" ></path><path d="M28,177 l144,0 0,25 -144,0 z" stroke-width="4" stroke="black" fill="rgb(255,255,0)" ></path></svg>