<svg xmlns="http://www.w3.org/2000/svg" version="1.2" baseProfile="tiny" width="158" height="118" viewBox="21 36 158 118"><path d="M25,50 l150,0 0,100 -150,0 z" stroke-width="4" stroke="black" fill="rgb(128,224,255)" fill-opacity="1" ></path><path d="m 102.5,119.2 12,-8 2.8,9.2 1.3,4 2.1,6.9 -18.2,-12 z m -23,12 3.4,-11.7 2,-5.9 0.8,-2.6 11.9,8.2 -18,12 z m 20.4,-34.6 13,12.2 c -1.5,1 -12.3,8.5 -13.1,8.5 -0.1,0 -11.6,-7.7 -12.7,-8.5 L 99.9,96.6 z m 7.7,-7.1 0.2,0.2 1.8,5.7 2.5,8.7 -10.1,-9.3 5.6,-5.2 0,0 z m -15.5,0.6 v -0.6 l 0.4,0.2 5.4,5 -10,9.4 2.6,-9 1.6,-5 z m 2.9,-1.7 9.8,-0 -5,4.4 -4.8,-4.4 z m 3.6,-23.1 v 3.6 h -4.4 c -0.5,0 -1,0.6 -1,1 v 0.6 c 0,0.7 0.8,1 1.5,1 h 4 v 4.2 h -7.2 c -0.5,0 -1,0.6 -1,1 v 0.2 c 0,1 0.5,1.5 1.5,1.5 h 6.8 v 7 h -6.8 c -0.8,0 -1,0.3 -1.3,0.7 l -0.6,2 -4.9,15.6 -3,9.6 -3.1,9.4 -0.1,0.8 -2.9,8.7 -0.1,0.8 -0.5,2.2 c 1,0.2 0.5,0.6 1.3,0.6 h 0.2 c 0.8,0 20.1,-13.7 23.1,-15.2 2.5,1.7 22.4,15.2 23.5,15.2 0.6,0 1,-0.7 1,-1.3 0,-0.1 -1.4,-4 -1.5,-4.2 l -0.1,-0.8 -3.1,-9.7 -2.9,-9.3 -4.7,-15.7 c -0.6,-0.8 -1.4,-3.8 -1.8,-5 -0.6,-1.8 -0.5,-4.3 -2.5,-4.3 h -6.8 v -7 h 7.2 c 0.5,0 1,-0.6 1,-1 v -0.4 c 0,-0.6 -0.2,-1.3 -0.8,-1.3 h -7.4 v -4.2 h 4 c 0.7,0 1.5,-0.4 1.5,-1 v -0.6 c 0,-0.7 -0.8,-1 -1.5,-1 h -4 v -4 c 0,-0.6 -0.7,-1 -1.3,-1 -0.8,-0 -1.3,0.6 -1.3,1.4 l 0,0 z m -6.6,24.8 0.4,-0.4 -0.4,-0.2 z" stroke-width="4" stroke="none" fill="black" ></path><path d="M85,48 85,40 115,40 115,48 100,46 Z" stroke-width="4" stroke="black" fill="black" ></path></svg>