<svg xmlns="http://www.w3.org/2000/svg" version="1.2" baseProfile="tiny" width="152" height="162" viewBox="24 14 152 162"><path d="M 100,28 L172,100 100,172 28,100 100,28 Z" stroke-width="4" stroke="black" fill="rgb(255,128,128)" fill-opacity="1" ></path><path d="M80,70 l10,10 M120,110 l-10,-10 M80,110 l10,-10 M120,70 l-10,10 M100,115 l0,20 M95,135 l10,0" stroke-width="4" stroke="black" fill="none" ></path><path d="m 113,90 c -0.3,8.8 -1.9,20.3 -10.8,24.6 -7.7,2 -12.3,-7.1 -13.8,-13.3 -2.6,-11.5 -2.3,-26 6.9,-34.6 6.0,-4.9 13.1,1.9 14.9,7.8 2,4.9 2.8,10.2 2.8,15.5 z" stroke-width="4" stroke="black" fill="none" ></path><circle cx="100" cy="100" r="40" stroke-width="4" stroke="black" fill="none" ></circle><path d="M85,40 85,18 115,18 115,40 100,24 Z" stroke-width="4" stroke="black" fill="black" ></path></svg>