<svg xmlns="http://www.w3.org/2000/svg" version="1.2" baseProfile="tiny" width="152" height="192" viewBox="24 14 152 192"><path d="M 100,28 L172,100 100,172 28,100 100,28 Z" stroke-width="4" stroke="black" fill="rgb(255,128,128)" fill-opacity="1" ></path><g transform="translate(0,15)" ><g transform="translate(25,25)" ><g transform="scale(0.75)" ><path d="m 100,60.5 c -16.4,0 -29.6,13.2 -29.6,29.6 0,12.8 8.3,23.9 19.7,27.8 l 0,19.7 c 3.2,1.2 6.3,1.8 9.9,1.8 3.6,0 6.7,-0.6 9.9,-1.8 l 0,-19.8 c 11.5,-3.9 19.8,-15 19.7,-27.8 0,-16.4 -13.2,-29.6 -29.6,-29.6 z" stroke-width="4" stroke="black" fill="none" ></path></g></g></g><text x="100" y="77" text-anchor="middle" font-size="25" font-family="Arial" font-weight="bold" stroke-width="4" stroke="none" fill="black" >GEN</text><path d="M85,40 85,18 115,18 115,40 100,24 Z" stroke-width="4" stroke="black" fill="black" ></path><path d="M28,177 l144,0 0,25 -144,0 z" stroke-width="4" stroke="black" fill="rgb(255,255,0)" ></path></svg>