<svg xmlns="http://www.w3.org/2000/svg" version="1.2" baseProfile="tiny" width="158" height="148" viewBox="21 36 158 148"><path d="M25,50 l150,0 0,100 -150,0 z" stroke-width="4" stroke="black" fill="rgb(128,224,255)" fill-opacity="1" ></path><g transform="translate(0,15)" ><g transform="translate(25,25)" ><g transform="scale(0.75)" ><path d="m 100,60.5 c -16.4,0 -29.6,13.2 -29.6,29.6 0,12.8 8.3,23.9 19.7,27.8 l 0,19.7 c 3.2,1.2 6.3,1.8 9.9,1.8 3.6,0 6.7,-0.6 9.9,-1.8 l 0,-19.8 c 11.5,-3.9 19.8,-15 19.7,-27.8 0,-16.4 -13.2,-29.6 -29.6,-29.6 z" stroke-width="4" stroke="black" fill="none" ></path></g></g></g><text x="100" y="77" text-anchor="middle" font-size="25" font-family="Arial" font-weight="bold" stroke-width="4" stroke="none" fill="black" >GEN</text><path d="M85,48 85,40 115,40 115,48 100,46 Z" stroke-width="4" stroke="black" fill="black" ></path><path d="M25,155 l150,0 0,25 -150,0 z" stroke-width="4" stroke="black" fill="rgb(255,0,0)" ></path></svg>