<svg xmlns="http://www.w3.org/2000/svg" version="1.2" baseProfile="tiny" width="152" height="192" viewBox="24 14 152 192"><path d="M 100,28 L172,100 100,172 28,100 100,28 Z" stroke-width="4" stroke="black" fill="rgb(255,128,128)" fill-opacity="1" ></path><path d="m 87.9,87.3 c -3.2,0 -5.8,2.6 -5.8,5.8 0,2.8 2.1,5.2 4.8,5.7 l 0,3.3 -3.8,0 0,2 3.8,0 0,9.4 2,0 0,-9.4 3.8,0 0,-2 -3.8,0 0,-3.3 c 2.7,-0.5 4.8,-2.8 4.8,-5.7 0,-3.2 -2.6,-5.8 -5.8,-5.8 z m 24,0 c -3.2,0 -5.8,2.6 -5.8,5.8 0,2.8 2.1,5.2 4.8,5.7 l 0,3.3 -3.8,0 0,2 3.8,0 0,9.4 2,0 0,-9.4 3.8,0 0,-2 -3.8,0 0,-3.3 c 2.7,-0.5 4.8,-2.8 4.8,-5.7 0,-3.2 -2.6,-5.8 -5.8,-5.8 z m -24,2 c 2.1,0 3.8,1.7 3.8,3.8 0,2.1 -1.7,3.8 -3.8,3.8 -2.1,0 -3.8,-1.7 -3.8,-3.8 0,-2.1 1.7,-3.8 3.8,-3.8 z m 24,0 c 2.1,0 3.8,1.7 3.8,3.8 0,2.1 -1.7,3.8 -3.8,3.8 -2.1,0 -3.8,-1.7 -3.8,-3.8 0,-2.1 1.7,-3.8 3.8,-3.8 z m 24.2,37.8 0,-3 -72.1,0 0,3 z m -3,-6.2 0,-2.8 -66.2,0 0,2.8 z M 66.8,98.2 c 0,1.3 -0.7,2.6 -0.7,4.3 -0,1.8 -0.2,3.1 -0.2,5 v 3.2 l 0.6,3.6 h 2.7 l -0.8,-6.4 v -1.8 c 0,-8.1 5,-17.9 9.3,-21.5 5.6,-4.6 11.6,-9.1 21.7,-9.1 h 0.9 c 9,0 17.1,4.4 21.6,8.8 3.2,3.2 4.1,4.7 6.4,8.7 1.4,2.4 3.3,8.4 3.3,12 v 4.3 c 0,1.4 -0.7,3 -0.7,4.4 v 0.5 h 2.7 l 0.6,-6.4 v -3.8 c 0,-1.6 -1,-5.2 -1.4,-6.6 -0.8,-2.5 -1.3,-3.6 -2.3,-5.7 -1.8,-3.8 -3.8,-6.4 -6.7,-9.3 -4.6,-4.6 -13.6,-9.6 -22.6,-9.6 h -2.5 c -7.8,0 -16.6,4.1 -20.6,7.9 -2.8,2.7 -4.4,4.1 -6.7,7.5 -1.1,1.6 -1.5,3 -2.5,4.6 -0.9,1.6 -1.2,4 -2,5.2 z" stroke-width="4" stroke="none" fill="black" ></path><path d="M85,40 85,18 115,18 115,40 100,24 Z" stroke-width="4" stroke="black" fill="black" ></path><path d="M28,177 l144,0 0,25 -144,0 z" stroke-width="4" stroke="black" fill="rgb(255,255,0)" ></path></svg>