<svg xmlns="http://www.w3.org/2000/svg" version="1.2" baseProfile="tiny" width="158" height="148" viewBox="21 36 158 148"><path d="M25,50 l150,0 0,100 -150,0 z" stroke-width="4" stroke="black" fill="rgb(128,224,255)" fill-opacity="1" ></path><path d="m 104.1,74.8 h 4.5 v 13.4 h 9.9 V 74.8 h 4.5 v 13.4 h 6.7 v 37 H 69.6 V 88.2 h 34.6 l 4e-4,-13.4 0,0 z m -35.7,51.6 h 62.3 V 86.9 h -6.4 V 73.5 h -7.2 v 13.4 h -7.2 V 73.5 h -7.2 v 13.4 h -34.4 v 39.5 z" stroke-width="4" stroke="none" fill="black" ></path><path d="m 104.1,74.8 h 4.5 v 13.4 h 9.9 V 74.8 h 4.5 v 13.4 h 6.7 v 37 H 69.6 V 88.2 h 34.6 l 4e-4,-13.4 0,0 z" stroke-width="4" stroke="none" fill="none" ></path><text x="100" y="113" text-anchor="middle" font-size="23" font-family="Arial" font-weight="bold" stroke-width="4" stroke="none" fill="black" >STOR</text><path d="M85,48 85,40 115,40 115,48 100,46 Z" stroke-width="4" stroke="black" fill="black" ></path><path d="M25,155 l150,0 0,25 -150,0 z" stroke-width="4" stroke="black" fill="rgb(255,255,0)" ></path></svg>